<?xml version="1.0" encoding="UTF-8" standalone="no"?>
<!DOCTYPE svg PUBLIC "-//W3C//DTD SVG 1.1//EN" "http://www.w3.org/Graphics/SVG/1.1/DTD/svg11.dtd">
<svg width="100%" height="100%" viewBox="0 0 22 22" version="1.1" xmlns="http://www.w3.org/2000/svg" xmlns:xlink="http://www.w3.org/1999/xlink" xml:space="preserve" xmlns:serif="http://www.serif.com/" style="fill-rule:evenodd;clip-rule:evenodd;stroke-linejoin:round;stroke-miterlimit:2;">
    <g transform="matrix(1,0,0,1,-949,-2842.32)">
        <g transform="matrix(1,0,0,1,3212.78,17408.7)">
            <g transform="matrix(1,0,0,1,-3210.78,-16023.3)">
                <path d="M953,1457L947,1457L947,1463L953,1463L953,1457ZM953,1465L947,1465L947,1471L953,1471L953,1465ZM953,1473L947,1473L947,1479L953,1479L953,1473ZM961,1457L955,1457L955,1463L961,1463L961,1457ZM961,1465L955,1465L955,1471L961,1471L961,1465ZM961,1473L955,1473L955,1479L961,1479L961,1473ZM969,1457L963,1457L963,1463L969,1463L969,1457ZM969,1465L963,1465L963,1471L969,1471L969,1465ZM969,1473L963,1473L963,1479L969,1479L969,1473Z" style="fill:rgb(255,167,0);"/>
            </g>
        </g>
    </g>
</svg>
