<?xml version="1.0" encoding="UTF-8" standalone="no"?>
<!DOCTYPE svg PUBLIC "-//W3C//DTD SVG 1.1//EN" "http://www.w3.org/Graphics/SVG/1.1/DTD/svg11.dtd">
<svg width="100%" height="100%" viewBox="0 0 18 20" version="1.1" xmlns="http://www.w3.org/2000/svg" xmlns:xlink="http://www.w3.org/1999/xlink" xml:space="preserve" xmlns:serif="http://www.serif.com/" style="fill-rule:evenodd;clip-rule:evenodd;stroke-linejoin:round;stroke-miterlimit:2;">
    <g transform="matrix(1,0,0,1,-360.055,-1221.82)">
        <g transform="matrix(1.06061,0,0,1.06061,1803.38,1949.73)">
            <g transform="matrix(0.0199148,0,0,0.0199148,-1362.76,-687.585)">
                <path d="M864,992L160,992C124.672,992 96,963.328 96,928L96,224C96,188.64 124.672,160 160,160L224,160L224,192C224,245.024 266.976,288 320,288C372.992,288 416,245.024 416,192L416,160L608,160L608,192C608,245.024 651.008,288 704,288C756.992,288 800,245.024 800,192L800,160L864,160C899.328,160 928,188.64 928,224L928,928C928,963.328 899.328,992 864,992ZM864,384L160,384L160,928L864,928L864,384ZM320,544L224,544L224,448L320,448L320,544ZM320,704L224,704L224,608L320,608L320,704ZM320,864L224,864L224,768L320,768L320,864ZM480,544L384,544L384,448L480,448L480,544ZM480,704L384,704L384,608L480,608L480,704ZM480,864L384,864L384,768L480,768L480,864ZM640,544L544,544L544,448L640,448L640,544ZM640,704L544,704L544,608L640,608L640,704ZM640,864L544,864L544,768L640,768L640,864ZM800,544L704,544L704,448L800,448L800,544ZM800,704L704,704L704,608L800,608L800,704ZM800,864L704,864L704,768L800,768L800,864ZM703.008,256C668.192,256 640,227.776 640,192.992L640,127.008C640,92.192 668.192,64 703.008,64C737.824,64 766.016,92.192 766.016,127.008L766.016,192.992C766.016,227.776 737.824,256 703.008,256ZM319.008,256C284.192,256 256,227.776 256,192.992L256,127.008C256,92.192 284.192,64 319.008,64C353.824,64 382.016,92.192 382.016,127.008L382.016,192.992C382.016,227.776 353.792,256 319.008,256Z" style="fill:white;fill-rule:nonzero;"/>
            </g>
        </g>
    </g>
</svg>
