<?xml version="1.0" encoding="UTF-8" standalone="no"?>
<!DOCTYPE svg PUBLIC "-//W3C//DTD SVG 1.1//EN" "http://www.w3.org/Graphics/SVG/1.1/DTD/svg11.dtd">
<svg width="100%" height="100%" viewBox="0 0 8 18" version="1.1" xmlns="http://www.w3.org/2000/svg" xmlns:xlink="http://www.w3.org/1999/xlink" xml:space="preserve" xmlns:serif="http://www.serif.com/" style="fill-rule:evenodd;clip-rule:evenodd;stroke-linejoin:round;stroke-miterlimit:2;">
    <g transform="matrix(1,0,0,1,-1436.45,-661.241)">
        <g transform="matrix(0.8,0,0,0.8,2038.69,1480.39)">
            <g transform="matrix(0.423639,0,0,0.423639,-818.516,-1117.32)">
                <path d="M160.338,245.622L160.338,270.587C160.338,270.94 160.625,271.227 160.978,271.227L170.101,271.227C170.454,271.227 170.74,270.94 170.74,270.587L170.74,245.622L177.354,245.622C177.686,245.622 177.963,245.367 177.991,245.036L178.627,237.514C178.659,237.141 178.365,236.82 177.99,236.82L170.74,236.82L170.74,231.484C170.74,230.233 171.754,229.219 173.005,229.219L178.102,229.219C178.456,229.219 178.742,228.932 178.742,228.579L178.742,221.057C178.742,220.704 178.456,220.417 178.102,220.417L169.49,220.417C164.436,220.417 160.338,224.514 160.338,229.568L160.338,236.82L155.777,236.82C155.424,236.82 155.137,237.107 155.137,237.46L155.137,244.982C155.137,245.336 155.424,245.622 155.777,245.622L160.338,245.622Z" style="fill:white;"/>
            </g>
        </g>
    </g>
</svg>
