<?xml version="1.0" encoding="UTF-8" standalone="no"?>
<!DOCTYPE svg PUBLIC "-//W3C//DTD SVG 1.1//EN" "http://www.w3.org/Graphics/SVG/1.1/DTD/svg11.dtd">
<svg width="100%" height="100%" viewBox="0 0 21 20" version="1.1" xmlns="http://www.w3.org/2000/svg" xmlns:xlink="http://www.w3.org/1999/xlink" xml:space="preserve" xmlns:serif="http://www.serif.com/" style="fill-rule:evenodd;clip-rule:evenodd;stroke-linejoin:round;stroke-miterlimit:2;">
    <g transform="matrix(1,0,0,1,-1482.33,-659.998)">
        <g transform="matrix(1,0,0,1,2185.74,1640.58)">
            <g transform="matrix(0.283823,0,0,0.283823,-685.974,-967.642)">
                <path d="M0,-20.656C0,-20.254 -0.312,-19.942 -0.715,-19.942L-7.66,-19.942L-7.66,-17.262L-0.715,-17.262C-0.312,-17.262 0,-16.949 0,-16.547L0,-13.979C0,-13.577 -0.312,-13.264 -0.715,-13.264L-7.66,-13.264L-7.66,-10.585L-0.715,-10.585C-0.312,-10.585 0,-10.272 0,-9.87L0,-7.324C0,-6.923 -0.312,-6.61 -0.715,-6.61L-10.92,-6.61C-11.322,-6.61 -11.635,-6.945 -11.635,-7.324L-11.635,-23.202C-11.635,-23.604 -11.3,-23.917 -10.92,-23.917L-0.715,-23.917C-0.335,-23.917 -0.022,-23.582 0,-23.202L0,-20.656ZM-14.113,-7.324C-14.113,-6.923 -14.426,-6.61 -14.828,-6.61L-17.374,-6.61C-17.619,-6.61 -17.843,-6.744 -17.954,-6.9L-25.234,-16.726L-25.234,-7.302C-25.234,-6.9 -25.547,-6.588 -25.949,-6.588L-28.495,-6.588C-28.897,-6.588 -29.209,-6.9 -29.209,-7.302L-29.209,-23.179C-29.209,-23.582 -28.897,-23.894 -28.495,-23.894L-25.971,-23.894C-25.748,-23.894 -25.502,-23.782 -25.391,-23.582L-18.111,-13.756L-18.111,-23.179C-18.111,-23.582 -17.798,-23.894 -17.396,-23.894L-14.851,-23.894C-14.448,-23.917 -14.113,-23.582 -14.113,-23.202L-14.113,-7.324ZM-31.71,-7.324C-31.71,-6.923 -32.023,-6.61 -32.425,-6.61L-34.971,-6.61C-35.373,-6.61 -35.686,-6.923 -35.686,-7.324L-35.686,-23.202C-35.686,-23.604 -35.373,-23.917 -34.971,-23.917L-32.425,-23.917C-32.023,-23.917 -31.71,-23.582 -31.71,-23.202L-31.71,-7.324ZM-37.874,-7.347C-37.874,-6.945 -38.187,-6.633 -38.588,-6.633L-48.794,-6.633C-48.995,-6.633 -49.151,-6.721 -49.285,-6.833C-49.419,-6.967 -49.486,-7.124 -49.486,-7.324L-49.486,-23.202C-49.486,-23.604 -49.173,-23.917 -48.771,-23.917L-46.226,-23.917C-45.824,-23.917 -45.511,-23.604 -45.511,-23.202L-45.511,-10.607L-38.566,-10.607C-38.187,-10.607 -37.874,-10.272 -37.874,-9.893L-37.874,-7.347ZM-25.011,-45.6C-38.646,-45.6 -50.56,-39.482 -56.802,-30.449C-59.75,-26.182 -61.433,-21.264 -61.433,-16.034C-61.433,-1.429 -48.481,10.808 -30.974,13.131C-26.708,14.046 -27.2,15.61 -28.16,21.349C-28.316,22.264 -28.897,24.944 -25.011,23.314C-21.125,21.683 -4.042,10.965 3.617,2.166C8.888,-3.64 11.411,-9.513 11.411,-16.034C11.411,-32.335 -4.936,-45.6 -25.011,-45.6" style="fill:rgb(150,150,150);fill-rule:nonzero;"/>
            </g>
        </g>
    </g>
</svg>
