<?xml version="1.0" encoding="UTF-8" standalone="no"?>
<!DOCTYPE svg PUBLIC "-//W3C//DTD SVG 1.1//EN" "http://www.w3.org/Graphics/SVG/1.1/DTD/svg11.dtd">
<svg width="100%" height="100%" viewBox="0 0 20 20" version="1.1" xmlns="http://www.w3.org/2000/svg" xmlns:xlink="http://www.w3.org/1999/xlink" xml:space="preserve" xmlns:serif="http://www.serif.com/" style="fill-rule:evenodd;clip-rule:evenodd;stroke-linejoin:round;stroke-miterlimit:2;">
    <g transform="matrix(1,0,0,1,-305.142,-2527.62)">
        <g transform="matrix(0.324248,0,0,0.324248,222.576,2509.04)">
            <path d="M281.316,105.188L289.21,105.188L289.21,114.414L281.316,114.414L281.316,105.188ZM275.839,92.189L279.837,92.189L279.837,96.187L275.839,96.187L275.839,92.189ZM275.839,81.553L279.837,81.553L279.837,85.551L275.839,85.551L275.839,81.553ZM275.839,70.916L279.837,70.916L279.837,74.915L275.839,74.915L275.839,70.916ZM283.264,92.189L287.262,92.189L287.262,96.187L283.264,96.187L283.264,92.189ZM283.264,81.553L287.262,81.553L287.262,85.551L283.264,85.551L283.264,81.553ZM283.264,70.916L287.262,70.916L287.262,74.915L283.264,74.915L283.264,70.916ZM290.688,92.189L294.687,92.189L294.687,96.187L290.688,96.187L290.688,92.189ZM290.688,81.553L294.687,81.553L294.687,85.551L290.688,85.551L290.688,81.553ZM290.688,70.916L294.687,70.916L294.687,74.915L290.688,74.915L290.688,70.916ZM313.688,114.414L302.892,114.414L302.892,58.681C302.892,57.922 302.276,57.306 301.517,57.306L269.009,57.306C268.25,57.306 267.634,57.922 267.634,58.681L267.634,114.414L256.838,114.414C255.624,114.414 254.639,115.399 254.639,116.614C254.639,117.829 255.624,118.814 256.838,118.814L313.688,118.814C314.902,118.814 315.888,117.829 315.888,116.614C315.888,115.399 314.902,114.414 313.688,114.414Z" style="fill:white;fill-rule:nonzero;"/>
        </g>
    </g>
</svg>
