<?xml version="1.0" encoding="UTF-8" standalone="no"?>
<!DOCTYPE svg PUBLIC "-//W3C//DTD SVG 1.1//EN" "http://www.w3.org/Graphics/SVG/1.1/DTD/svg11.dtd">
<svg width="100%" height="100%" viewBox="0 0 20 26" version="1.1" xmlns="http://www.w3.org/2000/svg" xmlns:xlink="http://www.w3.org/1999/xlink" xml:space="preserve" xmlns:serif="http://www.serif.com/" style="fill-rule:evenodd;clip-rule:evenodd;stroke-linejoin:round;stroke-miterlimit:2;">
    <g transform="matrix(1,0,0,1,-1785.01,-32.6991)">
        <g transform="matrix(1,0,0,1,2230,4734.57)">
            <g transform="matrix(0.330765,0,0,0.330765,17.0739,-3419.74)">
                <g transform="matrix(0.36742,0,0,0.36742,-1550.05,-3981.69)">
                    <path d="M581.106,481.714C581.106,442.575 549.083,390.064 509.945,390.064L487.849,390.064C448.71,390.064 416.688,442.575 416.688,481.713L416.688,481.714C416.688,498.54 581.106,498.54 581.106,481.714Z" style="fill:white;fill-rule:nonzero;"/>
                </g>
                <g transform="matrix(0.36742,0,0,0.36742,-1548.49,-3982.81)">
                    <path d="M545.885,336.966C545.885,362.917 524.848,383.954 498.897,383.954C472.946,383.954 451.909,362.917 451.909,336.966C451.909,311.015 472.946,289.978 498.897,289.978C524.848,289.978 545.885,311.015 545.885,336.966Z" style="fill:white;fill-rule:nonzero;"/>
                </g>
            </g>
        </g>
    </g>
</svg>
