<?xml version="1.0" encoding="UTF-8" standalone="no"?>
<!DOCTYPE svg PUBLIC "-//W3C//DTD SVG 1.1//EN" "http://www.w3.org/Graphics/SVG/1.1/DTD/svg11.dtd">
<svg width="100%" height="100%" viewBox="0 0 20 16" version="1.1" xmlns="http://www.w3.org/2000/svg" xmlns:xlink="http://www.w3.org/1999/xlink" xml:space="preserve" xmlns:serif="http://www.serif.com/" style="fill-rule:evenodd;clip-rule:evenodd;stroke-linejoin:round;stroke-miterlimit:2;">
    <g transform="matrix(1,0,0,1,-303.553,-2642.1)">
        <g transform="matrix(1,0,0,1,2287.29,3305.94)">
            <g transform="matrix(0.881579,0,0,0.881579,-2299.15,-1799.48)">
                <g transform="matrix(0.309191,0,0,0.309191,260.876,1228.76)">
                    <path d="M349.074,221.375C349.598,221.841 350.586,221.84 351.108,221.375L382.175,193.709C380.686,192.784 378.936,192.24 377.058,192.24L323.154,192.24C321.262,192.24 319.501,192.791 318.005,193.729L349.074,221.375Z" style="fill:white;fill-rule:nonzero;"/>
                </g>
                <g transform="matrix(0.309191,0,0,0.309191,260.876,1228.76)">
                    <path d="M360.717,227.633L364.489,223.393L385.669,242.238C386.384,240.884 386.793,239.345 386.793,237.71L386.793,201.975C386.793,200.547 386.477,199.194 385.922,197.971L354.883,225.613C353.54,226.809 351.816,227.408 350.091,227.408C348.368,227.408 346.645,226.81 345.302,225.614L314.274,198.005C313.729,199.219 313.419,200.561 313.419,201.975L313.419,237.71C313.419,239.456 313.887,241.092 314.696,242.51L336.161,223.394L339.935,227.632L318.837,246.421C320.14,247.07 321.602,247.444 323.154,247.444L377.058,247.444C378.727,247.444 380.298,247.021 381.672,246.279L360.717,227.633Z" style="fill:white;fill-rule:nonzero;"/>
                </g>
            </g>
        </g>
    </g>
</svg>
