<?xml version="1.0" encoding="UTF-8" standalone="no"?>
<!DOCTYPE svg PUBLIC "-//W3C//DTD SVG 1.1//EN" "http://www.w3.org/Graphics/SVG/1.1/DTD/svg11.dtd">
<svg width="100%" height="100%" viewBox="0 0 18 18" version="1.1" xmlns="http://www.w3.org/2000/svg" xmlns:xlink="http://www.w3.org/1999/xlink" xml:space="preserve" xmlns:serif="http://www.serif.com/" style="fill-rule:evenodd;clip-rule:evenodd;stroke-linejoin:round;stroke-miterlimit:2;">
    <g transform="matrix(1,0,0,1,-305.796,-2595.38)">
        <g transform="matrix(1,0,0,1,2287.29,3305.94)">
            <g transform="matrix(0.324248,0,0,0.324248,-2065.11,-762.686)">
                <path d="M310.641,201.573L302.801,195.661C301.463,194.325 299.371,194.246 298.13,195.489L291.814,202.63C288.022,200.105 285.57,198.376 280.305,193.11C275.039,187.844 273.31,185.391 270.784,181.6L277.925,175.284C279.168,174.043 279.089,171.951 277.753,170.613L271.84,162.774C270.502,161.436 269.109,160.04 265.774,161.207C262.752,162.261 257.883,166.879 257.883,173.281C257.867,180.021 263.461,190.012 273.164,199.785L273.16,199.788C273.199,199.827 273.239,199.864 273.278,199.903C273.317,199.943 273.354,199.982 273.393,200.021L273.396,200.018C283.173,209.724 293.394,215.548 300.133,215.531C306.535,215.531 311.152,210.662 312.207,207.639C313.374,204.305 311.979,202.911 310.641,201.573Z" style="fill:white;fill-rule:nonzero;"/>
            </g>
        </g>
    </g>
</svg>
