<?xml version="1.0" encoding="UTF-8" standalone="no"?>
<!DOCTYPE svg PUBLIC "-//W3C//DTD SVG 1.1//EN" "http://www.w3.org/Graphics/SVG/1.1/DTD/svg11.dtd">
<svg width="100%" height="100%" viewBox="0 0 399 378" version="1.1" xmlns="http://www.w3.org/2000/svg" xmlns:xlink="http://www.w3.org/1999/xlink" xml:space="preserve" xmlns:serif="http://www.serif.com/" style="fill-rule:evenodd;clip-rule:evenodd;stroke-linejoin:round;stroke-miterlimit:2;">
    <g transform="matrix(1,0,0,1,136.178,144.472)">
        <g id="圖層-1" serif:id="圖層 1">
            <path d="M0,91.822C22.485,91.644 38.612,88.589 53.582,81.136C89.389,63.31 111.089,34.962 113.491,-5.467C116.913,-63.053 70.223,-109.084 13.562,-112.616C-21.798,-114.82 -51.989,-103.036 -76.528,-77.029C-102.609,-49.388 -110.201,-4.321 -93.517,29.867C-73.4,71.09 -38.925,89.841 0,91.822M-136.178,-11.745C-135.255,-19.137 -134.694,-26.596 -133.345,-33.91C-127.762,-64.177 -112.84,-89.142 -89.694,-109.255C-62.816,-132.611 -31.196,-144.1 4.086,-144.464C63.695,-145.078 119.031,-111.008 139.334,-53.81C154.591,-10.824 147.745,29.739 120.902,66.769C119.546,68.639 118.163,70.49 116.582,72.637C125.274,80.899 133.76,89.102 142.465,97.065C143.549,98.057 145.856,98.238 147.492,98.018C159.014,96.47 168.778,99.844 177.167,107.814C201.812,131.231 226.598,154.501 251.172,177.992C264.611,190.839 265.815,208.358 254.563,221.274C241.943,235.76 220.35,236.9 205.473,223.599C196.903,215.938 188.671,207.898 180.324,199.989C163.75,184.287 147.292,168.462 130.605,152.879C122.195,145.025 118.331,135.761 119.698,124.25C119.899,122.564 119.313,120.17 118.167,119.037C110.001,110.956 101.595,103.117 93.08,95.025C87.753,98.288 82.662,101.694 77.317,104.638C21.422,135.422 -45.815,128.002 -92.905,85.142C-118.982,61.407 -133.435,31.605 -135.326,-3.926C-135.429,-5.875 -135.886,-7.806 -136.178,-9.745L-136.178,-11.745Z" style="fill:rgb(204,204,204);fill-rule:nonzero;"/>
        </g>
    </g>
</svg>
